HIERARCHY
ROOT Hips
{
  OFFSET -13.2887 92.3734 6.6709
  CHANNELS 6 Xposition Yposition Zposition Zrotation Xrotation Yrotation
  JOINT ToSpine
  {
    OFFSET -2.69724 7.43032 -0.144315
    CHANNELS 3 Zrotation Xrotation Yrotation
    JOINT Spine
    {
      OFFSET -0.0310711 10.7595 1.96963
      CHANNELS 3 Zrotation Xrotation Yrotation
      JOINT Spine1
      {
        OFFSET 13.1342 3.43533 0.764692
        CHANNELS 3 Zrotation Xrotation Yrotation
        JOINT Neck
        {
          OFFSET 29.8703 7.82586 -0.130764
          CHANNELS 3 Zrotation Xrotation Yrotation
          JOINT Head
          {
            OFFSET 9.52751 0.295786 -0.907742
            CHANNELS 3 Zrotation Xrotation Yrotation
            End Site
            {
              OFFSET 16.4037 0.713936 2.7358
            }
          }
        }
        JOINT LeftShoulder
        {
          OFFSET 27.5574 4.95586 2.47156
          CHANNELS 3 Zrotation Xrotation Yrotation
          JOINT LeftArm
          {
            OFFSET 1.20734 -0.998971 20.1238
            CHANNELS 3 Zrotation Xrotation Yrotation
            JOINT LeftForeArm
            {
              OFFSET 26.8049 -0.0536703 -0.155908
              CHANNELS 3 Zrotation Xrotation Yrotation
              JOINT LeftHand
              {
                OFFSET 26.6817 0 0.320147
                CHANNELS 3 Zrotation Xrotation Yrotation
                End Site
                {
                  OFFSET 18.6119 0 0.382219
                }
              }
            }
          }
        }
        JOINT RightShoulder
        {
          OFFSET 27.5927 4.71444 -2.65209
          CHANNELS 3 Zrotation Xrotation Yrotation
          JOINT RightArm
          {
            OFFSET 2.83739 -1.17114 -18.7564
            CHANNELS 3 Zrotation Xrotation Yrotation
            JOINT RightForeArm
            {
              OFFSET 28.839 -0.0548439 1.22491
              CHANNELS 3 Zrotation Xrotation Yrotation
              JOINT RightHand
              {
                OFFSET 26.5114 0 -0.101894
                CHANNELS 3 Zrotation Xrotation Yrotation
                End Site
                {
                  OFFSET 18.2168 0 0
                }
              }
            }
          }
        }
      }
    }
  }
  JOINT LeftUpLeg
  {
    OFFSET -4.76168 -1.9167 -10.2353
    CHANNELS 3 Zrotation Xrotation Yrotation
    JOINT LeftLeg
    {
      OFFSET 2.55951 -42.0585 -8.02213
      CHANNELS 3 Zrotation Xrotation Yrotation
      JOINT LeftFoot
      {
        OFFSET 3.16357 -42.5282 -3.95426
        CHANNELS 3 Zrotation Xrotation Yrotation
        JOINT LeftToeBase
        {
          OFFSET 0.346054 -6.02161 12.8035
          CHANNELS 3 Zrotation Xrotation Yrotation
          End Site
          {
            OFFSET 0.134235 -1.35082 5.13018
          }
        }
      }
    }
  }
  JOINT RightUpLeg
  {
    OFFSET -4.94151 -1.41743 10.6446
    CHANNELS 3 Zrotation Xrotation Yrotation
    JOINT RightLeg
    {
      OFFSET -2.56294 -42.0364 -7.94377
      CHANNELS 3 Zrotation Xrotation Yrotation
      JOINT RightFoot
      {
        OFFSET -3.0952 -42.555 -4.02241
        CHANNELS 3 Zrotation Xrotation Yrotation
        JOINT RightToeBase
        {
          OFFSET -0.0828122 -6.13587 12.8035
          CHANNELS 3 Zrotation Xrotation Yrotation
          End Site
          {
            OFFSET -0.131328 -1.35082 5.13018
          }
        }
      }
    }
  }
}
MOTION
Frames:	17
Frame Time:	0.0333333
-13.1835 92.3737 6.79067 -71.1329 -11.9111 -177.111 -70.1915 0 88.8779 99.1279 72.8541 -4.78441 2.48802 25.3218 -4.156 -137.212 2.79864 -160.299 -144.704 36.6948 -172.208 0.29945 -13.71 -32.8427 -141.674 12.1238 -58.9599 16.9713 -1.60895 -94.5043 1.89252 0.0126607 1.25377 -1.59985 8.84054 32.0675 -39.3812 -21.6569 147.321 12.9194 2.7988 101.715 0.58676 0.000331355 0.0646651 -42.5905 19.0903 100.751 -1.77214 30.6326 -4.96563 -4.98537 2.09923 0.808393 2.43224 -4.1352 -3.56727 -49.0773 -14.1276 85.8261 2.41555 40.3228 5.28376 -5.41034 -11.8603 1.2161 2.47508 -16.5953 -26.4853 
-13.242 92.3742 6.71176 -71.1522 -12.0224 -177.273 -70.1915 0 88.8779 98.6593 72.8868 -4.33837 2.57178 25.3435 -4.22666 -137.329 2.72211 -160.613 -144.891 36.6749 -172.402 0.253534 -13.9069 -32.8929 -141.673 11.9971 -58.7546 17.9993 -1.74395 -94.5999 1.86334 0.0124781 1.36238 -1.60141 8.69384 32.4302 -39.1867 -21.7153 146.9 13.7872 3.01454 101.793 0.58676 0.000331355 0.0646651 -42.8289 18.8041 100.598 -1.75107 30.3189 -4.84386 -4.72954 2.25204 0.788849 2.46034 -4.20894 -3.54268 -49.0329 -14.2196 85.9985 2.39484 40.5174 4.8994 -5.16287 -12.1722 1.21807 2.48751 -16.3414 -26.0633 
-13.346 92.3708 6.60955 -71.0252 -12.2143 -177.243 -70.1915 0 88.8779 98.1486 72.8453 -3.61198 2.51208 25.2967 -4.30001 -137.694 2.70066 -160.63 -145.679 36.8483 -172.045 0.224085 -14.0042 -33.1069 -141.564 11.9355 -58.7894 17.9438 -1.72538 -94.5615 1.82526 0.0122397 1.38979 -1.6112 8.65303 32.6478 -39.1658 -22.1166 146.543 12.3496 2.79936 102.241 0.58676 0.000331355 0.0646651 -42.6974 18.6355 100.252 -1.74326 30.212 -4.80751 -4.53256 2.61533 0.801656 2.69001 -4.87565 -3.14681 -48.9702 -14.2118 85.8979 2.44402 40.6343 5.22038 -6.00483 -11.8925 1.2307 2.41403 -17.1038 -27.2718 
-13.4501 92.3437 6.5173 -70.9367 -12.4096 -177.045 -70.1915 0 88.8779 98.2303 72.5668 -3.43268 2.22892 24.9736 -4.12788 -138.048 2.8353 -159.835 -146.369 37.0915 -171.278 0.329045 -13.5424 -33.0891 -141.473 12.2858 -58.6978 17.6355 -1.59967 -94.2705 1.78473 0.0119861 1.35273 -1.66338 8.96583 32.5129 -39.1014 -22.5786 146.721 10.5313 2.38755 102.281 0.58676 0.000331355 0.0646651 -42.5944 18.7622 100.133 -1.72538 30.1094 -4.70324 -4.80203 2.73648 0.856853 2.85013 -5.04292 -3.79198 -48.988 -14.126 85.6037 2.49437 40.7565 5.52471 -6.55341 -11.6677 1.2399 2.35119 -17.6832 -28.0371 
-13.5208 92.2988 6.40016 -70.9328 -12.7025 -176.865 -70.1915 0 88.8779 97.7555 72.3768 -2.94528 2.29647 24.6973 -3.86926 -138.298 2.8344 -159.659 -146.302 37.0804 -171.429 0.401635 -13.2311 -32.9937 -141.869 12.9419 -58.6106 17.8298 -1.50359 -93.9224 1.77574 0.0119298 1.36995 -1.67865 9.18214 32.1979 -38.9429 -22.7848 147.02 10.5621 2.3457 102.046 0.58676 0.000331355 0.0646651 -42.5942 18.8058 99.9108 -1.67413 29.9541 -4.33733 -5.3149 2.3223 0.884915 2.58627 -4.03149 -4.89381 -49.0567 -14.084 85.2739 2.48167 40.9441 5.28964 -6.69708 -11.6384 1.24329 2.31717 -17.9348 -27.8501 
-13.5856 92.2649 6.27513 -70.9796 -12.8076 -176.907 -70.1915 0 88.8779 98.1463 72.4046 -3.33889 2.2594 24.8114 -4.02341 -138.381 2.75773 -160.307 -145.866 37.0302 -171.922 0.348404 -13.4747 -32.9807 -142.002 13.0216 -58.6896 17.8463 -1.49467 -93.8908 1.75227 0.0117829 1.48092 -1.68169 9.04518 32.5413 -38.9651 -22.64 146.682 11.0208 2.48006 102.187 0.58676 0.000331355 0.0646651 -42.5452 18.6433 99.4423 -1.6665 30.0387 -4.28439 -5.46923 2.44498 0.923452 2.55968 -4.22556 -4.18796 -49.0164 -14.0435 85.3056 2.37877 41.134 4.31596 -6.89748 -11.9103 1.25391 2.33362 -17.7378 -26.3051 
-13.6375 92.1766 6.18786 -71.0205 -12.7355 -176.958 -70.1915 0 88.8779 98.5596 72.3672 -3.7379 2.28399 24.8157 -4.23418 -138.554 2.61258 -160.576 -145.469 36.9005 -172.195 0.362282 -13.429 -32.8306 -141.68 13.1531 -58.8517 17.0307 -1.47019 -94.0422 1.72065 0.011585 1.49954 -1.69453 9.01515 32.7597 -39.0344 -22.362 146.606 11.2072 2.54991 102.31 0.58676 0.000331355 0.0646651 -42.4837 18.6605 99.2443 -1.65879 30.3204 -4.12136 -5.27602 2.58309 0.911403 2.85173 -4.85837 -4.34927 -48.7737 -13.864 85.696 2.36493 41.6378 3.81873 -6.83468 -12.3023 1.25989 2.35828 -17.4961 -26.1137 
-13.7145 92.1335 6.09995 -70.9205 -12.6114 -176.891 -70.1915 0 88.8779 97.7601 72.4396 -3.09541 2.53212 24.7814 -4.0667 -138.889 2.55902 -160.541 -145.501 36.9217 -172.167 0.39387 -13.2794 -32.8782 -141.384 13.3441 -59.205 16.0166 -1.39682 -94.1044 1.70405 0.0114811 1.49634 -1.69578 9.04349 32.7082 -39.1082 -22.2298 146.652 11.0516 2.55171 102.48 0.58676 0.000331355 0.0646651 -42.3109 18.9393 99.3905 -1.65974 30.5296 -4.0122 -5.25799 2.45109 0.892354 2.81016 -4.58767 -4.84593 -48.5335 -13.4772 86.1817 2.36578 41.9447 3.60463 -6.48395 -12.6225 1.25903 2.37721 -17.3887 -26.8372 
-13.7934 92.149 6.0699 -70.7727 -12.5761 -176.737 -70.1915 0 88.8779 97.2999 72.4191 -2.5778 2.66331 24.7652 -4.15284 -139.045 2.57487 -160.761 -145.493 37.012 -172.173 0.41392 -13.2126 -32.7099 -141.276 13.692 -59.1982 15.6432 -1.34909 -94.0555 1.7823 0.0119709 1.38896 -1.71131 8.97161 33.056 -39.1147 -22.0513 146.489 11.5441 2.65781 102.437 0.58676 0.000331355 0.0646651 -41.9926 19.1226 99.3234 -1.73084 30.7854 -4.57577 -5.01776 2.72309 0.888254 2.78906 -5.00674 -3.46678 -48.4384 -13.1916 86.3204 2.35198 41.9441 3.50097 -6.35303 -12.607 1.25589 2.37324 -17.4516 -27.2463 
-13.8286 92.0755 6.08824 -70.719 -12.7703 -176.394 -70.1915 0 88.8779 97.7584 72.2148 -2.89549 2.57627 24.5917 -4.17714 -139.011 2.44153 -161.227 -145.045 36.8271 -172.693 0.445411 -13.1003 -32.4653 -141.567 14.1157 -58.9821 17.9446 -1.56 -94.0636 1.81944 0.0122033 1.38363 -1.73935 9.0756 33.1305 -39.0796 -22.1237 146.545 11.5897 2.65645 102.387 0.58676 0.000331355 0.0646651 -41.5538 19.2378 98.7959 -1.76242 31.3034 -4.71978 -4.78598 2.6569 0.845138 2.98982 -5.54259 -3.22205 -48.4943 -13.1139 85.83 2.36878 42.0046 3.56833 -6.94115 -12.1491 1.26016 2.27273 -18.267 -27.3855 
-13.9065 92.0476 6.15366 -70.674 -12.8692 -176.105 -70.1915 0 88.8779 97.843 72.1387 -2.78225 2.70215 24.6022 -4.29995 -139.159 2.31443 -161.579 -144.958 36.7609 -172.833 0.471535 -13.0041 -32.3598 -142.4 15.0595 -58.9631 19.9832 -1.68354 -93.8814 1.86595 0.0124943 1.42323 -1.76184 9.11319 33.2959 -39.263 -22.0355 146.314 10.5366 2.45258 102.587 0.58676 0.000331355 0.0646651 -41.0598 19.3522 98.2443 -1.79611 32.004 -4.67294 -5.01737 2.00518 0.801917 2.67992 -4.96828 -2.77382 -48.6545 -12.9983 85.4954 2.31209 41.8477 3.21897 -6.89159 -12.1601 1.25936 2.26022 -18.4143 -26.4892 
-13.9357 91.9521 6.31207 -70.651 -12.9788 -175.805 -70.1915 0 88.8779 97.5501 72.1899 -2.42223 2.99954 24.6352 -4.14763 -139.393 2.31476 -161.759 -145.054 36.8849 -172.665 0.404748 -13.2918 -32.6192 -142.044 15.5076 -59.4746 19.6772 -1.61009 -93.7576 1.81004 0.0121442 1.65778 -1.71747 8.94184 33.2014 -39.474 -21.9857 146.096 10.4037 2.42459 102.603 0.58676 0.000331355 0.0646651 -40.3573 19.5476 97.8677 -1.89987 33.1522 -5.14023 -5.13236 1.86154 0.800619 3.03297 -6.03849 -1.8734 -48.6721 -12.9689 85.2531 2.32663 42.0291 3.1404 -6.52192 -12.2218 1.25107 2.25358 -18.4621 -26.2646 
-13.8926 91.7683 6.56896 -70.5501 -13.2334 -175.261 -70.1915 0 88.8779 98.4067 72.0249 -3.29783 2.64424 24.3568 -3.51292 -139.494 2.20379 -161.72 -145.07 36.8471 -172.383 0.381624 -13.3571 -32.9071 -141.298 15.4546 -59.8715 19.6352 -1.62682 -93.8137 1.73497 0.0113182 1.87238 -1.7056 9.01833 32.879 -39.3306 -22.2819 146.129 10.5141 2.39459 102.334 0.58676 0.000331355 0.0646651 -39.1189 20.0449 97.7523 -2.07784 34.9558 -5.8298 -4.39339 1.49704 0.653962 3.37625 -6.87423 -1.61122 -48.608 -12.9498 84.801 2.42947 42.3868 3.65159 -6.32883 -12.0822 1.24369 2.204 -18.8185 -27.276 
-13.874 91.5191 7.01163 -70.3133 -13.3735 -174.72 -70.1915 0 88.8779 99.1653 71.8403 -3.74653 2.32272 24.211 -3.41544 -139.816 2.01726 -162.031 -145.396 36.8402 -172.17 0.438013 -13.1469 -32.5892 -141.186 16.3689 -60.0031 19.9628 -1.66847 -93.8474 1.78334 0.0142158 1.90654 -1.6897 8.95093 32.8556 -39.2074 -22.3895 145.982 10.2953 2.30005 102.117 0.58676 0.000331355 0.0646651 -37.3992 20.7042 97.842 -2.37222 37.5553 -6.94337 -3.80221 0.258932 0.426638 3.15432 -6.76729 -0.248192 -48.3695 -13.0369 84.522 2.44741 42.746 3.50115 -5.79944 -12.4814 1.2417 2.28202 -18.2428 -26.3882 
-13.7682 91.0572 7.65561 -70.2862 -13.2825 -174.301 -70.1915 0 88.8779 100.79 71.8683 -4.90911 2.04704 24.3631 -3.30759 -140.072 2.0783 -162.466 -145.617 37.0599 -172.086 0.429967 -13.2171 -32.4027 -140.532 17.1094 -60.9385 19.9676 -1.62236 -93.7206 1.6595 0.0215227 2.33637 -1.63173 8.71984 32.7287 -39.4633 -22.4494 145.604 10.9944 2.32189 101.449 0.58676 0.000331355 0.0646651 -35.5875 21.5407 98.0646 -2.80637 41.0418 -8.17916 -3.17384 -1.16825 0.200285 3.52485 -7.92186 1.27763 -47.9052 -13.5116 84.1003 2.44234 43.592 2.7824 -6.13309 -12.3838 1.24739 2.21327 -18.8688 -23.4662 
-13.5636 90.4915 8.5978 -70.3311 -12.8064 -174.042 -70.1915 0 88.8779 102.915 71.9207 -6.49184 1.66588 24.5454 -3.00601 -140.202 2.14779 -162.723 -145.52 37.1711 -172.21 0.397707 -13.3701 -32.4468 -139.644 17.0163 -62.4056 20.0417 -1.54139 -93.4871 1.48556 0.0307511 2.94376 -1.66341 8.83727 32.8224 -40.177 -22.3317 144.632 11.7055 2.20357 100.201 0.58676 0.000331355 0.0646651 -33.7324 22.4849 98.4716 -3.25496 45.0525 -8.68775 -2.60294 -3.3765 -0.0989726 3.98443 -9.12143 2.49943 -47.2516 -14.1436 83.9736 2.55667 44.5483 2.83838 -6.39608 -11.5998 1.23315 2.08118 -21.0229 -21.4042 
-13.2839 89.9231 9.99892 -70.3811 -11.6964 -174.278 -70.1915 0 88.8779 105.138 72.2181 -8.34314 1.19122 24.9695 -2.52581 -140.301 2.20473 -162.816 -145.549 37.2454 -172.309 0.402223 -13.4203 -31.9734 -138.913 17.4734 -63.9308 20.5458 -1.50756 -93.2876 1.4411 0.0364063 3.31407 -1.67147 8.84496 32.8973 -41.0873 -21.9968 142.734 11.9331 1.99729 99.0635 0.58676 0.000331355 0.0646651 -32.1012 23.1143 99.0779 -3.78396 49.2641 -8.44222 -2.76652 -6.09483 -0.357817 3.93415 -9.2624 3.87702 -46.3233 -14.8985 85.3061 2.8422 45.3766 4.26567 -4.75663 -11.2841 1.17789 1.99718 -22.1667 -21.5833 
